<svg width="17" height="15" fill="none" xmlns="http://www.w3.org/2000/svg"><path d="M.221 7.187c0-1.129.14-2.126.418-2.992.294-.865.675-1.584 1.144-2.156.47-.586.998-1.026 1.584-1.32A3.968 3.968 0 015.193.257c.616 0 1.225.154 1.826.462.602.294 1.13.734 1.584 1.32.47.572.844 1.291 1.122 2.156.294.866.44 1.863.44 2.992 0 1.144-.146 2.156-.44 3.036-.278.866-.652 1.599-1.122 2.2a4.728 4.728 0 01-1.584 1.342 3.968 3.968 0 01-1.826.462 3.968 3.968 0 01-1.826-.462c-.586-.308-1.114-.755-1.584-1.342-.47-.601-.85-1.334-1.144-2.2-.278-.88-.418-1.892-.418-3.036zm8.558.572c0-1.056-.117-1.987-.352-2.794-.234-.821-.542-1.503-.924-2.046-.366-.557-.792-.975-1.276-1.254-.47-.293-.953-.44-1.452-.44-.498 0-.953.147-1.364.44A3.58 3.58 0 002.4 2.787a6.3 6.3 0 00-.66 1.628 8.333 8.333 0 00-.22 1.936c0 .807.096 1.628.286 2.464a9.4 9.4 0 00.814 2.244c.352.66.77 1.203 1.254 1.628.499.426 1.042.638 1.628.638a2.38 2.38 0 001.232-.352c.396-.249.74-.608 1.034-1.078.308-.469.55-1.048.726-1.738.19-.689.286-1.488.286-2.398zm4.647 6.248v-.22c.352 0 .572-.102.66-.308.102-.22.154-.476.154-.77V2.171c0-.146-.074-.22-.22-.22a.668.668 0 00-.242.066l-2.508.792v-.792L16.396.235V.83a1.306 1.306 0 00-.572.484c-.132.22-.184.477-.154.77v10.538c0 .308.051.58.154.814.102.235.337.352.704.352v.22h-3.102z" fill="#202020"/></svg>