<svg width="21" height="15" fill="none" xmlns="http://www.w3.org/2000/svg"><path d="M.814 7.187c0-1.129.14-2.126.418-2.992.293-.865.675-1.584 1.144-2.156.47-.586.997-1.026 1.584-1.32A3.968 3.968 0 015.786.257c.616 0 1.225.154 1.826.462.601.294 1.13.734 1.584 1.32.47.572.843 1.291 1.122 2.156.293.866.44 1.863.44 2.992 0 1.144-.147 2.156-.44 3.036-.279.866-.653 1.599-1.122 2.2a4.728 4.728 0 01-1.584 1.342 3.968 3.968 0 01-1.826.462 3.968 3.968 0 01-1.826-.462c-.587-.308-1.115-.755-1.584-1.342-.47-.601-.85-1.334-1.144-2.2-.279-.88-.418-1.892-.418-3.036zm8.558.572c0-1.056-.117-1.987-.352-2.794-.235-.821-.543-1.503-.924-2.046-.367-.557-.792-.975-1.276-1.254-.47-.293-.953-.44-1.452-.44s-.953.147-1.364.44a3.58 3.58 0 00-1.012 1.122 6.3 6.3 0 00-.66 1.628 8.333 8.333 0 00-.22 1.936c0 .807.095 1.628.286 2.464a9.4 9.4 0 00.814 2.244c.352.66.77 1.203 1.254 1.628.499.426 1.041.638 1.628.638.425 0 .836-.117 1.232-.352.396-.249.74-.608 1.034-1.078.308-.469.55-1.048.726-1.738.19-.689.286-1.488.286-2.398zm2.864-6.05h.198c.074 0 .162-.036.264-.11.118-.073.242-.154.374-.242l.507-.352c.205-.132.432-.249.681-.352.264-.117.558-.212.88-.286.323-.073.682-.11 1.078-.11.5 0 .983.074 1.453.22a3.5 3.5 0 011.253.638c.367.279.66.638.88 1.078.22.44.33.968.33 1.584 0 .514-.087.983-.264 1.408a4.538 4.538 0 01-.726 1.188c-.293.367-.63.719-1.011 1.056a37.22 37.22 0 01-1.145.968c-.38.308-.755.624-1.121.946-.353.323-.675.66-.969 1.012a5.708 5.708 0 00-.704 1.144c-.19.396-.3.822-.33 1.276h4.576c.558 0 .998-.095 1.32-.286.323-.205.492-.535.506-.99h.199v2.508h-8.14c0-.66.11-1.268.33-1.826.22-.572.506-1.092.857-1.562.352-.484.741-.931 1.166-1.342.44-.41.873-.806 1.298-1.188.352-.308.69-.616 1.012-.924.338-.308.631-.616.88-.924.265-.322.47-.652.617-.99a2.63 2.63 0 00.242-1.1 3.05 3.05 0 00-.265-1.298 2.838 2.838 0 00-.66-.968 2.565 2.565 0 00-.924-.594 2.727 2.727 0 00-1.056-.22 3.1 3.1 0 00-1.98.682 4.873 4.873 0 00-1.386 1.716h-.22V1.71z" fill="#202020"/></svg>