<svg width="20" height="15" fill="none" xmlns="http://www.w3.org/2000/svg"><path d="M.221 7.187c0-1.129.14-2.126.418-2.992.294-.865.675-1.584 1.144-2.156.47-.586.998-1.026 1.584-1.32A3.968 3.968 0 015.193.257c.616 0 1.225.154 1.826.462.602.294 1.13.734 1.584 1.32.47.572.844 1.291 1.122 2.156.294.866.44 1.863.44 2.992 0 1.144-.146 2.156-.44 3.036-.278.866-.652 1.599-1.122 2.2a4.728 4.728 0 01-1.584 1.342 3.968 3.968 0 01-1.826.462 3.968 3.968 0 01-1.826-.462c-.586-.308-1.114-.755-1.584-1.342-.47-.601-.85-1.334-1.144-2.2-.278-.88-.418-1.892-.418-3.036zm8.558.572c0-1.056-.117-1.987-.352-2.794-.234-.821-.542-1.503-.924-2.046-.366-.557-.792-.975-1.276-1.254-.47-.293-.953-.44-1.452-.44-.498 0-.953.147-1.364.44A3.58 3.58 0 002.4 2.787a6.3 6.3 0 00-.66 1.628 8.333 8.333 0 00-.22 1.936c0 .807.096 1.628.286 2.464a9.4 9.4 0 00.814 2.244c.352.66.77 1.203 1.254 1.628.499.426 1.042.638 1.628.638a2.38 2.38 0 001.232-.352c.396-.249.74-.608 1.034-1.078.308-.469.55-1.048.726-1.738.19-.689.286-1.488.286-2.398zM11.754.895h.198c.117 0 .242-.022.374-.066.132-.044.278-.095.44-.154.249-.088.55-.176.902-.264.352-.102.784-.154 1.298-.154.586 0 1.107.088 1.562.264a3.16 3.16 0 011.166.682c.322.279.564.609.726.99.176.382.264.778.264 1.188 0 .572-.176 1.122-.528 1.65-.338.528-.866.954-1.584 1.276 1.012.294 1.767.763 2.266 1.408.498.646.748 1.379.748 2.2 0 .616-.118 1.188-.352 1.716-.22.514-.55.968-.99 1.364a4.691 4.691 0 01-1.54.902c-.602.22-1.276.33-2.024.33-.558 0-1.02-.051-1.386-.154a14.9 14.9 0 01-.924-.286 3.59 3.59 0 00-.44-.132 1.246 1.246 0 00-.396-.066h-.198v-1.694h.22c.381.528.85.932 1.408 1.21a4.158 4.158 0 001.76.396 3.71 3.71 0 001.43-.264c.425-.19.784-.44 1.078-.748.308-.308.535-.66.682-1.056a3.236 3.236 0 00-.022-2.508 3.42 3.42 0 00-.748-1.122 3.54 3.54 0 00-1.188-.77c-.455-.19-.976-.286-1.562-.286h-1.012v-.726h1.122c.454 0 .85-.073 1.188-.22a2.52 2.52 0 00.88-.594c.234-.249.41-.528.528-.836a2.7 2.7 0 00.176-.968 2.41 2.41 0 00-.176-.902 2.02 2.02 0 00-.484-.77 2.54 2.54 0 00-.814-.572 2.482 2.482 0 00-1.078-.22c-.499 0-.998.14-1.496.418-.499.279-.917.697-1.254 1.254h-.22V.895z" fill="#202020"/></svg>