<svg width="21" height="15" fill="none" xmlns="http://www.w3.org/2000/svg"><path d="M.814 7.704c0-1.129.14-2.126.418-2.992.293-.865.675-1.584 1.144-2.156.47-.586.997-1.026 1.584-1.32A3.968 3.968 0 015.786.774c.616 0 1.225.154 1.826.462.601.294 1.13.734 1.584 1.32.47.572.843 1.291 1.122 2.156.293.866.44 1.863.44 2.992 0 1.144-.147 2.156-.44 3.036-.279.866-.653 1.6-1.122 2.2a4.728 4.728 0 01-1.584 1.342 3.968 3.968 0 01-1.826.462 3.968 3.968 0 01-1.826-.462c-.587-.308-1.115-.755-1.584-1.342-.47-.6-.85-1.334-1.144-2.2C.953 9.86.814 8.848.814 7.704zm8.558.572c0-1.056-.117-1.987-.352-2.794-.235-.82-.543-1.503-.924-2.046-.367-.557-.792-.975-1.276-1.254-.47-.293-.953-.44-1.452-.44s-.953.147-1.364.44a3.58 3.58 0 00-1.012 1.122 6.3 6.3 0 00-.66 1.628 8.333 8.333 0 00-.22 1.936c0 .807.095 1.628.286 2.464a9.4 9.4 0 00.814 2.244c.352.66.77 1.203 1.254 1.628.499.426 1.041.638 1.628.638.425 0 .836-.117 1.232-.352.396-.249.74-.608 1.034-1.078.308-.469.55-1.048.726-1.738.19-.689.286-1.488.286-2.398zm7.616 6.248v-.22c.206 0 .36-.029.463-.088a.59.59 0 00.241-.264.826.826 0 00.088-.374 4.44 4.44 0 00.022-.44v-2.156h-6.005L19.233.444v9.438h1.341v1.1h-1.341v2.156c0 .294.05.565.154.814.117.235.351.352.703.352v.22h-3.102zm.814-10.802a281.368 281.368 0 01-2.2 3.08 946.058 946.058 0 00-2.178 3.08h4.378v-6.16z" fill="#202020"/></svg>